# This file uses centimeters as units for non-parametric coordinates.

mtllib RobotPed.mtl
g default
v 8.737339 -0.016776 -2.838933
v 7.432425 -0.016776 -5.399972
v 5.399972 -0.016776 -7.432425
v 2.838933 -0.016776 -8.737338
v 0.000000 -0.016776 -9.186981
v -2.838933 -0.016776 -8.737338
v -5.399971 -0.016776 -7.432423
v -7.432422 -0.016776 -5.399971
v -8.737336 -0.016776 -2.838933
v -9.186978 -0.016776 0.000000
v -8.737336 -0.016776 2.838933
v -7.432422 -0.016776 5.399970
v -5.399970 -0.016776 7.432421
v -2.838933 -0.016776 8.737335
v -0.000000 -0.016776 9.186977
v 2.838932 -0.016776 8.737334
v 5.399969 -0.016776 7.432421
v 7.432420 -0.016776 5.399970
v 8.737334 -0.016776 2.838932
v 9.186976 -0.016776 0.000000
v 8.737339 1.151895 -2.838933
v 7.432425 1.151895 -5.399972
v 5.399972 1.151895 -7.432425
v 2.838933 1.151895 -8.737338
v 0.000000 1.151895 -9.186981
v -2.838933 1.151895 -8.737338
v -5.399971 1.151895 -7.432423
v -7.432422 1.151895 -5.399971
v -8.737336 1.151895 -2.838933
v -9.186978 1.151895 0.000000
v -8.737336 1.151895 2.838933
v -7.432422 1.151895 5.399970
v -5.399970 1.151895 7.432421
v -2.838933 1.151895 8.737335
v -0.000000 1.151895 9.186977
v 2.838932 1.151895 8.737334
v 5.399969 1.151895 7.432421
v 7.432420 1.151895 5.399970
v 8.737334 1.151895 2.838932
v 9.186976 1.151895 0.000000
v 6.989871 1.151895 -2.271147
v 5.945941 1.151895 -4.319978
v 4.319978 1.151895 -5.945941
v 2.271147 1.151895 -6.989871
v 0.000000 1.151895 -7.349586
v -2.271147 1.151895 -6.989871
v -4.319977 1.151895 -5.945939
v -5.945938 1.151895 -4.319978
v -6.989869 1.151895 -2.271146
v -7.349584 1.151895 -0.000000
v -6.989869 1.151895 2.271146
v -5.945937 1.151895 4.319976
v -4.319976 1.151895 5.945937
v -2.271146 1.151895 6.989869
v -0.000000 1.151895 7.349581
v 2.271145 1.151895 6.989867
v 4.319975 1.151895 5.945936
v 5.945937 1.151895 4.319975
v 6.989867 1.151895 2.271145
v 7.349582 1.151895 -0.000000
v 6.989871 2.269958 -2.271147
v 5.945941 2.269958 -4.319978
v 4.319978 2.269958 -5.945941
v 2.271147 2.269958 -6.989871
v 0.000000 2.269958 -7.349586
v -2.271147 2.269958 -6.989871
v -4.319977 2.269958 -5.945939
v -5.945938 2.269958 -4.319978
v -6.989869 2.269958 -2.271146
v -7.349584 2.269958 -0.000000
v -6.989869 2.269958 2.271146
v -5.945937 2.269958 4.319976
v -4.319976 2.269958 5.945937
v -2.271146 2.269958 6.989869
v -0.000000 2.269958 7.349581
v 2.271145 2.269958 6.989867
v 4.319975 2.269958 5.945936
v 5.945937 2.269958 4.319975
v 6.989867 2.269958 2.271145
v 7.349582 2.269958 -0.000000
v 5.009407 2.269958 -1.627656
v 4.261257 2.269958 -3.095985
v 3.095985 2.269958 -4.261258
v 1.627655 2.269958 -5.009408
v 0.000000 2.269958 -5.267204
v -1.627655 2.269958 -5.009408
v -3.095984 2.269958 -4.261257
v -4.261255 2.269958 -3.095985
v -5.009406 2.269958 -1.627656
v -5.267201 2.269958 -0.000001
v -5.009406 2.269958 1.627654
v -4.261254 2.269958 3.095982
v -3.095983 2.269958 4.261254
v -1.627655 2.269958 5.009405
v -0.000000 2.269958 5.267199
v 1.627654 2.269958 5.009404
v 3.095982 2.269958 4.261253
v 4.261254 2.269958 3.095982
v 5.009404 2.269958 1.627654
v 5.267200 2.269958 -0.000001
v 5.009407 3.056133 -1.627656
v 4.261257 3.056133 -3.095985
v 3.095985 3.056133 -4.261258
v 1.627655 3.056133 -5.009408
v 0.000000 3.056133 -5.267204
v -1.627655 3.056133 -5.009408
v -3.095984 3.056133 -4.261257
v -4.261255 3.056133 -3.095985
v -5.009406 3.056133 -1.627656
v -5.267201 3.056133 -0.000001
v -5.009406 3.056133 1.627654
v -4.261254 3.056133 3.095982
v -3.095983 3.056133 4.261254
v -1.627655 3.056133 5.009405
v -0.000000 3.056133 5.267199
v 1.627654 3.056133 5.009404
v 3.095982 3.056133 4.261253
v 4.261254 3.056133 3.095982
v 5.009404 3.056133 1.627654
v 5.267200 3.056133 -0.000001
vt 0.585440 0.998008
vt 0.360586 0.958277
vt 0.380373 0.885119
vt 0.554503 0.873114
vt 0.206427 0.871952
vt 0.242772 0.820792
vt 0.765937 0.857933
vt 0.714232 0.802479
vt 0.861741 0.709492
vt 0.805760 0.681292
vt 0.904709 0.560880
vt 0.848992 0.551489
vt 0.905494 0.418149
vt 0.852917 0.424216
vt 0.050210 0.248224
vt 0.123711 0.142820
vt 0.159251 0.175968
vt 0.093953 0.270223
vt 0.223683 0.062758
vt 0.248208 0.104521
vt 0.008462 0.370750
vt 0.057259 0.379890
vt 0.341860 0.014604
vt 0.353490 0.061510
vt 0.468979 0.001992
vt 0.466735 0.050380
vt 0.594662 0.026259
vt 0.578695 0.072134
vt 0.530142 0.774961
vt 0.403002 0.782902
vt 0.412563 0.729309
vt 0.517183 0.722629
vt 0.293263 0.742084
vt 0.318943 0.697965
vt 0.646405 0.722706
vt 0.612902 0.679765
vt 0.724366 0.635344
vt 0.681042 0.608328
vt 0.765192 0.534413
vt 0.718759 0.523163
vt 0.772834 0.431665
vt 0.727622 0.434632
vt 0.160407 0.303212
vt 0.213125 0.226029
vt 0.243572 0.254155
vt 0.198007 0.321581
vt 0.285362 0.167627
vt 0.306322 0.203095
vt 0.131522 0.393111
vt 0.173546 0.400087
vt 0.371063 0.132482
vt 0.380938 0.172429
vt 0.463263 0.123539
vt 0.461250 0.164711
vt 0.554361 0.141522
vt 0.540533 0.180564
vt 0.495232 0.634022
vt 0.425837 0.639039
vt 0.429996 0.608368
vt 0.487813 0.603921
vt 0.360784 0.620562
vt 0.374725 0.593902
vt 0.558955 0.606076
vt 0.541030 0.580874
vt 0.607937 0.559368
vt 0.583162 0.542283
vt 0.637833 0.501092
vt 0.610012 0.493126
vt 0.647481 0.438149
vt 0.619700 0.439064
vt 0.264876 0.353739
vt 0.297706 0.303715
vt 0.316508 0.320906
vt 0.288097 0.364829
vt 0.343540 0.265838
vt 0.356514 0.287577
vt 0.248149 0.411724
vt 0.274044 0.415625
vt 0.398409 0.243147
vt 0.404508 0.267648
vt 0.457547 0.237586
vt 0.456267 0.262838
vt 0.515842 0.249651
vt 0.507223 0.273617
vt 0.870097 0.287301
vt 0.803026 0.174057
vt 0.708778 0.085077
vt 0.001807 0.502378
vt 0.031749 0.634624
vt 0.098965 0.760389
vt 0.328063 0.562943
vt 0.294310 0.519642
vt 0.275978 0.468847
vt 0.552899 0.299221
vt 0.589082 0.337590
vt 0.612242 0.385596
vt 0.143896 0.726070
vt 0.210112 0.671836
vt 0.081065 0.615415
vt 0.155415 0.584620
vt 0.052448 0.497577
vt 0.129385 0.489281
vt 0.823126 0.306681
vt 0.751324 0.335206
vt 0.764086 0.204850
vt 0.704577 0.251172
vt 0.680390 0.124931
vt 0.637030 0.185143
vt 0.245928 0.640210
vt 0.307185 0.582965
vt 0.196812 0.566132
vt 0.269326 0.531778
vt 0.172750 0.483810
vt 0.249433 0.472857
vt 0.710512 0.350575
vt 0.637631 0.376732
vt 0.670711 0.276946
vt 0.610189 0.322033
vt 0.612344 0.218951
vt 0.568274 0.278550
vn 0.951057 0.000000 -0.309016
vn 0.809017 0.000000 -0.587785
vn 0.809017 0.000000 -0.587785
vn 0.951057 0.000000 -0.309016
vn 0.587785 0.000000 -0.809017
vn 0.587785 0.000000 -0.809017
vn 0.309017 0.000000 -0.951057
vn 0.309017 0.000000 -0.951057
vn 0.000000 0.000000 -1.000000
vn 0.000000 0.000000 -1.000000
vn -0.309017 0.000000 -0.951057
vn -0.309017 0.000000 -0.951057
vn -0.587786 0.000000 -0.809017
vn -0.587786 0.000000 -0.809017
vn -0.809017 0.000000 -0.587785
vn -0.809017 0.000000 -0.587785
vn -0.951057 0.000000 -0.309017
vn -0.951057 0.000000 -0.309017
vn -1.000000 0.000000 0.000000
vn -1.000000 0.000000 0.000000
vn -0.951057 0.000000 0.309017
vn -0.951057 0.000000 0.309017
vn -0.809017 0.000000 0.587785
vn -0.809017 0.000000 0.587785
vn -0.587785 0.000000 0.809017
vn -0.587785 0.000000 0.809017
vn -0.309017 0.000000 0.951057
vn -0.309017 0.000000 0.951057
vn 0.000000 0.000000 1.000000
vn 0.000000 0.000000 1.000000
vn 0.309017 0.000000 0.951057
vn 0.309017 0.000000 0.951057
vn 0.587785 0.000000 0.809017
vn 0.587785 0.000000 0.809017
vn 0.809017 0.000000 0.587785
vn 0.809017 0.000000 0.587785
vn 0.951057 0.000000 0.309017
vn 0.951057 0.000000 0.309017
vn 1.000000 0.000000 0.000001
vn 1.000000 0.000000 0.000001
vn 0.000000 1.000000 -0.000000
vn 0.000000 1.000000 -0.000000
vn 0.000000 1.000000 -0.000000
vn 0.000000 1.000000 -0.000000
vn 0.000000 1.000000 -0.000000
vn 0.000000 1.000000 -0.000000
vn 0.000000 1.000000 -0.000000
vn 0.000000 1.000000 -0.000000
vn 0.000000 1.000000 -0.000000
vn 0.000000 1.000000 -0.000000
vn 0.000000 1.000000 -0.000000
vn 0.000000 1.000000 -0.000000
vn 0.000000 1.000000 -0.000000
vn 0.000000 1.000000 -0.000000
vn 0.000000 1.000000 -0.000000
vn 0.000000 1.000000 -0.000000
vn 0.000000 1.000000 -0.000000
vn 0.000000 1.000000 -0.000000
vn 0.000000 1.000000 -0.000000
vn 0.000000 1.000000 -0.000000
vn 0.000000 1.000000 0.000000
vn 0.000000 1.000000 -0.000000
vn 0.000000 1.000000 -0.000000
vn 0.000000 1.000000 0.000000
vn 0.000000 1.000000 -0.000000
vn 0.000000 1.000000 -0.000000
vn 0.000000 1.000000 0.000000
vn 0.000000 1.000000 0.000000
vn 0.000000 1.000000 0.000000
vn 0.000000 1.000000 0.000000
vn 0.000000 1.000000 0.000000
vn 0.000000 1.000000 0.000000
vn 0.000000 1.000000 -0.000000
vn 0.000000 1.000000 -0.000000
vn 0.000000 1.000000 0.000000
vn 0.000000 1.000000 -0.000000
vn 0.000000 1.000000 0.000000
vn 0.000000 1.000000 0.000000
vn 0.000000 1.000000 0.000000
vn 0.000000 1.000000 0.000000
vn 0.000000 1.000000 -0.000000
vn 0.000000 1.000000 -0.000000
vn 0.000000 1.000000 -0.000000
vn 0.000000 1.000000 -0.000000
vn 0.000000 1.000000 0.000000
vn 0.000000 1.000000 0.000000
vn 0.000000 1.000000 -0.000000
vn 0.000000 1.000000 -0.000000
vn 0.000000 1.000000 0.000000
vn 0.000000 1.000000 0.000000
vn 0.000000 1.000000 -0.000000
vn 0.000000 1.000000 -0.000000
vn 0.000000 1.000000 -0.000000
vn 0.000000 1.000000 -0.000000
vn 0.000000 1.000000 0.000000
vn 0.000000 1.000000 -0.000000
vn 0.000000 1.000000 -0.000000
vn 0.000000 1.000000 -0.000000
vn 0.000000 1.000000 0.000000
vn 0.000000 1.000000 0.000000
vn 0.951057 0.000000 -0.309016
vn 0.809017 0.000000 -0.587785
vn 0.809017 0.000000 -0.587785
vn 0.951057 0.000000 -0.309016
vn 0.587785 0.000000 -0.809017
vn 0.587785 0.000000 -0.809017
vn 0.309017 0.000000 -0.951057
vn 0.309017 0.000000 -0.951057
vn 0.000000 0.000000 -1.000000
vn 0.000000 0.000000 -1.000000
vn -0.309017 0.000000 -0.951057
vn -0.309017 0.000000 -0.951057
vn -0.587785 0.000000 -0.809017
vn -0.587785 0.000000 -0.809017
vn -0.809017 0.000000 -0.587785
vn -0.809017 0.000000 -0.587785
vn -0.951057 0.000000 -0.309017
vn -0.951057 0.000000 -0.309017
vn -1.000000 -0.000000 0.000000
vn -1.000000 -0.000000 0.000000
vn -0.951056 -0.000000 0.309017
vn -0.951056 -0.000000 0.309017
vn -0.809017 0.000000 0.587785
vn -0.809017 0.000000 0.587785
vn -0.587785 0.000000 0.809017
vn -0.587785 0.000000 0.809017
vn -0.309017 0.000000 0.951057
vn -0.309017 0.000000 0.951057
vn 0.000000 0.000000 1.000000
vn 0.000000 0.000000 1.000000
vn 0.309017 0.000000 0.951056
vn 0.309017 0.000000 0.951056
vn 0.587785 0.000000 0.809017
vn 0.587785 0.000000 0.809017
vn 0.809017 0.000000 0.587785
vn 0.809017 0.000000 0.587785
vn 0.951057 0.000000 0.309017
vn 0.951057 0.000000 0.309017
vn 1.000000 0.000000 0.000001
vn 1.000000 0.000000 0.000001
vn 0.000000 1.000000 0.000000
vn 0.000000 1.000000 0.000000
vn 0.000000 1.000000 0.000000
vn 0.000000 1.000000 0.000000
vn 0.000000 1.000000 0.000000
vn 0.000000 1.000000 0.000000
vn 0.000000 1.000000 0.000000
vn 0.000000 1.000000 0.000000
vn 0.000000 1.000000 0.000000
vn 0.000000 1.000000 0.000000
vn 0.000000 1.000000 0.000000
vn 0.000000 1.000000 0.000000
vn 0.000000 1.000000 -0.000000
vn 0.000000 1.000000 -0.000000
vn 0.000000 1.000000 0.000000
vn 0.000000 1.000000 0.000000
vn 0.000000 1.000000 0.000000
vn 0.000000 1.000000 0.000000
vn 0.000000 1.000000 0.000000
vn 0.000000 1.000000 0.000000
vn 0.000000 1.000000 0.000000
vn 0.000000 1.000000 0.000000
vn 0.000000 1.000000 0.000000
vn 0.000000 1.000000 0.000000
vn 0.000000 1.000000 0.000000
vn 0.000000 1.000000 0.000000
vn 0.000000 1.000000 -0.000000
vn 0.000000 1.000000 -0.000000
vn 0.000000 1.000000 0.000000
vn 0.000000 1.000000 0.000000
vn 0.000000 1.000000 -0.000000
vn 0.000000 1.000000 -0.000000
vn 0.000000 1.000000 0.000000
vn 0.000000 1.000000 0.000000
vn 0.000000 1.000000 0.000000
vn 0.000000 1.000000 0.000000
vn 0.000000 1.000000 -0.000000
vn 0.000000 1.000000 -0.000000
vn 0.000000 1.000000 0.000000
vn 0.000000 1.000000 0.000000
vn 0.951057 -0.000000 -0.309016
vn 0.809017 0.000000 -0.587785
vn 0.809017 0.000000 -0.587785
vn 0.951057 -0.000000 -0.309016
vn 0.587785 0.000000 -0.809017
vn 0.587785 0.000000 -0.809017
vn 0.309017 0.000000 -0.951057
vn 0.309017 0.000000 -0.951057
vn 0.000000 0.000000 -1.000000
vn 0.000000 0.000000 -1.000000
vn -0.309017 0.000000 -0.951057
vn -0.309017 0.000000 -0.951057
vn -0.587785 0.000000 -0.809017
vn -0.587785 0.000000 -0.809017
vn -0.809017 0.000000 -0.587785
vn -0.809017 0.000000 -0.587785
vn -0.951057 -0.000000 -0.309017
vn -0.951057 -0.000000 -0.309017
vn -1.000000 -0.000000 -0.000000
vn -1.000000 -0.000000 0.000000
vn -0.951057 0.000000 0.309017
vn -0.951057 0.000000 0.309017
vn -0.809017 0.000000 0.587785
vn -0.809017 0.000000 0.587785
vn -0.587785 0.000000 0.809017
vn -0.587785 0.000000 0.809017
vn -0.309017 0.000000 0.951057
vn -0.309017 0.000000 0.951057
vn 0.000000 0.000000 1.000000
vn 0.000000 0.000000 1.000000
vn 0.309017 0.000000 0.951057
vn 0.309017 0.000000 0.951057
vn 0.587785 0.000000 0.809017
vn 0.587785 0.000000 0.809017
vn 0.809017 0.000000 0.587785
vn 0.809017 0.000000 0.587785
vn 0.951057 0.000000 0.309017
vn 0.951057 0.000000 0.309017
vn 1.000000 0.000000 0.000001
vn 1.000000 0.000000 0.000001
s 1
g Pedestal
usemtl initialShadingGroup
f 1/1/1 2/2/2 22/3/3 21/4/4
f 2/2/2 3/5/5 23/6/6 22/3/3
f 3/5/5 4/90/7 24/97/8 23/6/6
f 4/90/7 5/89/9 25/99/10 24/97/8
f 5/89/9 6/88/11 26/101/12 25/99/10
f 6/88/11 7/21/13 27/22/14 26/101/12
f 7/21/13 8/15/15 28/18/16 27/22/14
f 8/15/15 9/16/17 29/17/18 28/18/16
f 9/16/17 10/19/19 30/20/20 29/17/18
f 10/19/19 11/23/21 31/24/22 30/20/20
f 11/23/21 12/25/23 32/26/24 31/24/22
f 12/25/23 13/27/25 33/28/26 32/26/24
f 13/27/25 14/87/27 34/107/28 33/28/26
f 14/87/27 15/86/29 35/105/30 34/107/28
f 15/86/29 16/85/31 36/103/32 35/105/30
f 16/85/31 17/13/33 37/14/34 36/103/32
f 17/13/33 18/11/35 38/12/36 37/14/34
f 18/11/35 19/9/37 39/10/38 38/12/36
f 19/9/37 20/7/39 40/8/40 39/10/38
f 20/7/39 1/1/1 21/4/4 40/8/40
s off
f 101/60/41 102/59/42 103/62/43 104/91/44 105/92/45 106/93/46 107/78/47 108/74/48 109/73/49 110/76/50 111/80/51 112/82/52 113/84/53 114/94/54 115/95/55 116/96/56 117/70/57 118/68/58 119/66/59 120/64/60
s 2
f 21/4/61 22/3/62 42/30/63 41/29/64
f 22/3/62 23/6/65 43/33/66 42/30/63
f 23/6/65 24/97/67 44/98/68 43/33/66
f 24/97/67 25/99/69 45/100/70 44/98/68
f 25/99/69 26/101/71 46/102/72 45/100/70
f 26/101/71 27/22/73 47/49/74 46/102/72
f 27/22/73 28/18/75 48/43/76 47/49/74
f 28/18/75 29/17/77 49/44/78 48/43/76
f 29/17/77 30/20/79 50/47/80 49/44/78
f 30/20/79 31/24/81 51/51/82 50/47/80
f 31/24/81 32/26/83 52/53/84 51/51/82
f 32/26/83 33/28/85 53/55/86 52/53/84
f 33/28/85 34/107/87 54/108/88 53/55/86
f 34/107/87 35/105/89 55/106/90 54/108/88
f 35/105/89 36/103/91 56/104/92 55/106/90
f 36/103/91 37/14/93 57/41/94 56/104/92
f 37/14/93 38/12/95 58/39/96 57/41/94
f 38/12/95 39/10/97 59/37/98 58/39/96
f 39/10/97 40/8/99 60/35/100 59/37/98
f 40/8/99 21/4/61 41/29/64 60/35/100
s 3
f 41/29/101 42/30/102 62/31/103 61/32/104
f 42/30/102 43/33/105 63/34/106 62/31/103
f 43/33/105 44/98/107 64/109/108 63/34/106
f 44/98/107 45/100/109 65/111/110 64/109/108
f 45/100/109 46/102/111 66/113/112 65/111/110
f 46/102/111 47/49/113 67/50/114 66/113/112
f 47/49/113 48/43/115 68/46/116 67/50/114
f 48/43/115 49/44/117 69/45/118 68/46/116
f 49/44/117 50/47/119 70/48/120 69/45/118
f 50/47/119 51/51/121 71/52/122 70/48/120
f 51/51/121 52/53/123 72/54/124 71/52/122
f 52/53/123 53/55/125 73/56/126 72/54/124
f 53/55/125 54/108/127 74/119/128 73/56/126
f 54/108/127 55/106/129 75/117/130 74/119/128
f 55/106/129 56/104/131 76/115/132 75/117/130
f 56/104/131 57/41/133 77/42/134 76/115/132
f 57/41/133 58/39/135 78/40/136 77/42/134
f 58/39/135 59/37/137 79/38/138 78/40/136
f 59/37/137 60/35/139 80/36/140 79/38/138
f 60/35/139 41/29/101 61/32/104 80/36/140
s 4
f 61/32/141 62/31/142 82/58/143 81/57/144
f 62/31/142 63/34/145 83/61/146 82/58/143
f 63/34/145 64/109/147 84/110/148 83/61/146
f 64/109/147 65/111/149 85/112/150 84/110/148
f 65/111/149 66/113/151 86/114/152 85/112/150
f 66/113/151 67/50/153 87/77/154 86/114/152
f 67/50/153 68/46/155 88/71/156 87/77/154
f 68/46/155 69/45/157 89/72/158 88/71/156
f 69/45/157 70/48/159 90/75/160 89/72/158
f 70/48/159 71/52/161 91/79/162 90/75/160
f 71/52/161 72/54/163 92/81/164 91/79/162
f 72/54/163 73/56/165 93/83/166 92/81/164
f 73/56/165 74/119/167 94/120/168 93/83/166
f 74/119/167 75/117/169 95/118/170 94/120/168
f 75/117/169 76/115/171 96/116/172 95/118/170
f 76/115/171 77/42/173 97/69/174 96/116/172
f 77/42/173 78/40/175 98/67/176 97/69/174
f 78/40/175 79/38/177 99/65/178 98/67/176
f 79/38/177 80/36/179 100/63/180 99/65/178
f 80/36/179 61/32/141 81/57/144 100/63/180
s 5
f 81/57/181 82/58/182 102/59/183 101/60/184
f 82/58/182 83/61/185 103/62/186 102/59/183
f 83/61/185 84/110/187 104/91/188 103/62/186
f 84/110/187 85/112/189 105/92/190 104/91/188
f 85/112/189 86/114/191 106/93/192 105/92/190
f 86/114/191 87/77/193 107/78/194 106/93/192
f 87/77/193 88/71/195 108/74/196 107/78/194
f 88/71/195 89/72/197 109/73/198 108/74/196
f 89/72/197 90/75/199 110/76/200 109/73/198
f 90/75/199 91/79/201 111/80/202 110/76/200
f 91/79/201 92/81/203 112/82/204 111/80/202
f 92/81/203 93/83/205 113/84/206 112/82/204
f 93/83/205 94/120/207 114/94/208 113/84/206
f 94/120/207 95/118/209 115/95/210 114/94/208
f 95/118/209 96/116/211 116/96/212 115/95/210
f 96/116/211 97/69/213 117/70/214 116/96/212
f 97/69/213 98/67/215 118/68/216 117/70/214
f 98/67/215 99/65/217 119/66/218 118/68/216
f 99/65/217 100/63/219 120/64/220 119/66/218
f 100/63/219 81/57/181 101/60/184 120/64/220
